<svg xmlns="http://www.w3.org/2000/svg" xmlns:xlink="http://www.w3.org/1999/xlink" width="1920" height="3240" viewBox="0 0 1920 3240"><defs><filter id="a" x="1283" y="484" width="488" height="488" filterUnits="userSpaceOnUse"><feOffset dx="5" dy="5" input="SourceAlpha"/><feGaussianBlur stdDeviation="5" result="b"/><feFlood flood-opacity="0.161"/><feComposite operator="in" in2="b"/><feComposite in="SourceGraphic"/></filter><filter id="c" x="616" y="713" width="530" height="530" filterUnits="userSpaceOnUse"><feOffset dx="5" dy="5" input="SourceAlpha"/><feGaussianBlur stdDeviation="5" result="d"/><feFlood flood-opacity="0.161"/><feComposite operator="in" in2="d"/><feComposite in="SourceGraphic"/></filter><filter id="e" x="-317" y="260" width="530" height="530" filterUnits="userSpaceOnUse"><feOffset dx="5" dy="5" input="SourceAlpha"/><feGaussianBlur stdDeviation="5" result="f"/><feFlood flood-opacity="0.161"/><feComposite operator="in" in2="f"/><feComposite in="SourceGraphic"/></filter><filter id="g" x="183" y="-360" width="775" height="775" filterUnits="userSpaceOnUse"><feOffset dx="5" dy="5" input="SourceAlpha"/><feGaussianBlur stdDeviation="5" result="h"/><feFlood flood-opacity="0.161"/><feComposite operator="in" in2="h"/><feComposite in="SourceGraphic"/></filter><filter id="i" x="-154" y="651" width="611" height="507" filterUnits="userSpaceOnUse"><feOffset dx="5" dy="5" input="SourceAlpha"/><feGaussianBlur stdDeviation="5" result="j"/><feFlood flood-opacity="0.161"/><feComposite operator="in" in2="j"/><feComposite in="SourceGraphic"/></filter><filter id="k" x="1361" y="-178" width="789" height="789" filterUnits="userSpaceOnUse"><feOffset dx="5" dy="5" input="SourceAlpha"/><feGaussianBlur stdDeviation="5" result="l"/><feFlood flood-opacity="0.161"/><feComposite operator="in" in2="l"/><feComposite in="SourceGraphic"/></filter><filter id="m" x="360" y="1341" width="1230" height="679" filterUnits="userSpaceOnUse"><feOffset dx="15" dy="15" input="SourceAlpha"/><feGaussianBlur stdDeviation="5" result="n"/><feFlood flood-opacity="0.161"/><feComposite operator="in" in2="n"/><feComposite in="SourceGraphic"/></filter><filter id="o" x="360" y="1341" width="1230" height="679" filterUnits="userSpaceOnUse"><feOffset dx="15" dy="15" input="SourceAlpha"/><feGaussianBlur stdDeviation="5" result="p"/><feFlood flood-opacity="0.161"/><feComposite operator="in" in2="p"/><feComposite in="SourceGraphic"/></filter><filter id="q" x="360" y="1290" width="1230" height="81" filterUnits="userSpaceOnUse"><feOffset dx="15" dy="15" input="SourceAlpha"/><feGaussianBlur stdDeviation="5" result="r"/><feFlood flood-opacity="0.161"/><feComposite operator="in" in2="r"/><feComposite in="SourceGraphic"/></filter><filter id="s" x="360" y="2441" width="1230" height="679" filterUnits="userSpaceOnUse"><feOffset dx="15" dy="15" input="SourceAlpha"/><feGaussianBlur stdDeviation="5" result="t"/><feFlood flood-opacity="0.161"/><feComposite operator="in" in2="t"/><feComposite in="SourceGraphic"/></filter><filter id="u" x="360" y="2441" width="1230" height="679" filterUnits="userSpaceOnUse"><feOffset dx="15" dy="15" input="SourceAlpha"/><feGaussianBlur stdDeviation="5" result="v"/><feFlood flood-opacity="0.161"/><feComposite operator="in" in2="v"/><feComposite in="SourceGraphic"/></filter><filter id="w" x="360" y="2390" width="1230" height="81" filterUnits="userSpaceOnUse"><feOffset dx="15" dy="15" input="SourceAlpha"/><feGaussianBlur stdDeviation="5" result="x"/><feFlood flood-opacity="0.161"/><feComposite operator="in" in2="x"/><feComposite in="SourceGraphic"/></filter><clipPath id="z"><rect width="1920" height="3240"/></clipPath></defs><g id="y" clip-path="url(#z)"><rect width="1920" height="3240" fill="#eee"/><g transform="matrix(1, 0, 0, 1, 0, 0)" filter="url(#a)"><circle cx="229" cy="229" r="229" transform="translate(1293 494)" fill="#ed337f"/></g><g transform="matrix(1, 0, 0, 1, 0, 0)" filter="url(#c)"><circle cx="250" cy="250" r="250" transform="translate(626 723)" fill="#53dd8f"/></g><g transform="matrix(1, 0, 0, 1, 0, 0)" filter="url(#e)"><circle cx="250" cy="250" r="250" transform="translate(-307 270)" fill="#5c53dd"/></g><g transform="matrix(1, 0, 0, 1, 0, 0)" filter="url(#g)"><circle cx="372.5" cy="372.5" r="372.5" transform="translate(193 -350)" fill="#53dd8f"/></g><g transform="matrix(1, 0, 0, 1, 0, 0)" filter="url(#i)"><ellipse cx="290.5" cy="238.5" rx="290.5" ry="238.5" transform="translate(-144 661)" fill="#ed337f"/></g><g transform="matrix(1, 0, 0, 1, 0, 0)" filter="url(#k)"><circle cx="379.5" cy="379.5" r="379.5" transform="translate(1371 -168)" fill="#5c53dd"/></g><g transform="translate(-122 -1224)"><g transform="matrix(1, 0, 0, 1, 122, 1224)" filter="url(#m)"><path d="M0,0H1200a0,0,0,0,1,0,0V631a18,18,0,0,1-18,18H18A18,18,0,0,1,0,631V0A0,0,0,0,1,0,0Z" transform="translate(360 1341)" fill="#272727"/></g><g transform="matrix(1, 0, 0, 1, 122, 1224)" filter="url(#o)"><path d="M0,0H1200a0,0,0,0,1,0,0V631a18,18,0,0,1-18,18H18A18,18,0,0,1,0,631V0A0,0,0,0,1,0,0Z" transform="translate(360 1341)" fill="#272727"/></g><g transform="matrix(1, 0, 0, 1, 122, 1224)" filter="url(#q)"><path d="M18,0H1182a18,18,0,0,1,18,18V51a0,0,0,0,1,0,0H0a0,0,0,0,1,0,0V18A18,18,0,0,1,18,0Z" transform="translate(360 1290)" fill="#fff"/></g><text transform="translate(879.759 2615)" fill="#84ed33" font-size="24" font-family="Roboto-Regular, Roboto"><tspan x="-52.336" y="0">Loading...</tspan></text><path d="M12.5,0A12.5,12.5,0,1,1,0,12.5,12.5,12.5,0,0,1,12.5,0Z" transform="translate(602 2527)" fill="#84ed33"/><circle cx="12.5" cy="12.5" r="12.5" transform="translate(567 2527)" fill="#eaeb74"/><circle cx="12.5" cy="12.5" r="12.5" transform="translate(532 2527)" fill="#ef6666"/><text transform="translate(664 2615)" fill="#ed337f" font-size="24" font-family="Roboto-Regular, Roboto"><tspan x="-154.125" y="0">Malik Henry\Web Developer&gt;</tspan></text><text transform="translate(664 2706)" fill="#84ed33" font-size="24" font-family="Roboto-Regular, Roboto"><tspan x="0" y="23">Lorem ipsum dolor sit amet, consectetur adipiscing elit. Donec consectetur </tspan><tspan x="0" y="63">facilisis lectus, ac pulvinar orci </tspan><tspan x="0" y="103">mollis sit amet. Integer ultrices sapien sed tellus porttitor maximus eget eget </tspan><tspan x="0" y="143">turpis. Cras nec lacus est. Cras </tspan><tspan x="0" y="183">in fermentum tortor. Donec non neque vel nulla malesuada porta. Quisque </tspan><tspan x="0" y="223">convallis tempus neque, eget </tspan><tspan x="0" y="263">vulputate lectus cursus id. Morbi ornare odio a tincidunt consectetur. </tspan><tspan x="0" y="303">Pellentesque hendrerit finibus lectus sit </tspan><tspan x="0" y="343">amet hendrerit. Suspendisse potenti. Nam condimentum interdum velit, ac </tspan><tspan x="0" y="383">auctor lorem condimentum et. </tspan></text><text transform="translate(1082 2548)" fill="#272727" font-size="24" font-family="Roboto-Bold, Roboto" font-weight="700"><tspan x="-156.34" y="0">Malik Henry - Web Developer</tspan></text><text transform="translate(572.759 2873)" fill="#e5ed33" font-size="24" font-family="Roboto-Regular, Roboto"><tspan x="-62.754" y="0">PORTFOLIO</tspan></text><text transform="translate(547.759 2744)" fill="#e5ed33" font-size="24" font-family="Roboto-Regular, Roboto"><tspan x="-38.49" y="0">ABOUT</tspan></text><text transform="translate(563.759 3002)" fill="#e5ed33" font-size="24" font-family="Roboto-Regular, Roboto"><tspan x="-53.707" y="0">CONTACT</tspan></text></g><g transform="translate(-122 -124)"><g transform="matrix(1, 0, 0, 1, 122, 124)" filter="url(#s)"><path d="M0,0H1200a0,0,0,0,1,0,0V631a18,18,0,0,1-18,18H18A18,18,0,0,1,0,631V0A0,0,0,0,1,0,0Z" transform="translate(360 2441)" fill="#272727"/></g><g transform="matrix(1, 0, 0, 1, 122, 124)" filter="url(#u)"><path d="M0,0H1200a0,0,0,0,1,0,0V631a18,18,0,0,1-18,18H18A18,18,0,0,1,0,631V0A0,0,0,0,1,0,0Z" transform="translate(360 2441)" fill="#272727"/></g><g transform="matrix(1, 0, 0, 1, 122, 124)" filter="url(#w)"><path d="M18,0H1182a18,18,0,0,1,18,18V51a0,0,0,0,1,0,0H0a0,0,0,0,1,0,0V18A18,18,0,0,1,18,0Z" transform="translate(360 2390)" fill="#fff"/></g><text transform="translate(895.759 2615)" fill="#84ed33" font-size="24" font-family="Roboto-Regular, Roboto"><tspan x="-67.98" y="0">START PAGE</tspan></text><path d="M12.5,0A12.5,12.5,0,1,1,0,12.5,12.5,12.5,0,0,1,12.5,0Z" transform="translate(602 2527)" fill="#84ed33"/><circle cx="12.5" cy="12.5" r="12.5" transform="translate(567 2527)" fill="#eaeb74"/><circle cx="12.5" cy="12.5" r="12.5" transform="translate(532 2527)" fill="#ef6666"/><text transform="translate(664 2615)" fill="#ed337f" font-size="24" font-family="Roboto-Regular, Roboto"><tspan x="-154.125" y="0">Malik Henry\Web Developer&gt;</tspan></text><text transform="translate(1082 2548)" fill="#272727" font-size="24" font-family="Roboto-Bold, Roboto" font-weight="700"><tspan x="-156.34" y="0">Malik Henry - Web Developer</tspan></text><text transform="translate(572.759 2873)" fill="#e5ed33" font-size="24" font-family="Roboto-Regular, Roboto"><tspan x="-62.754" y="0">PORTFOLIO</tspan></text><text transform="translate(547.759 2744)" fill="#e5ed33" font-size="24" font-family="Roboto-Regular, Roboto"><tspan x="-38.49" y="0">ABOUT</tspan></text><text transform="translate(563.759 3002)" fill="#e5ed33" font-size="24" font-family="Roboto-Regular, Roboto"><tspan x="-53.707" y="0">CONTACT</tspan></text></g></g></svg>